Nederlands gesproken,
Heksje Lilly ontvangt een bijzondere brief. De Koninklijke Troon van Mandolan is betoverd en ze hebben daar dringend de hulp van Heksje Lilly nodig. Natuurlijk wil Lilly graag helpen en ze vertrekt samen met het draakje Hector naar Mandolan. Daar maakt ze kennis met riksjachauffeur Musa, grootvizier Guliman en een heleboel andere bijzondere mensen en wezens. Maar zal het haar lukken om de troon te bevrijden van de toverspreuk?

Dutch Spoken,
Lilli is traveling to India, to solve a mystery.

------------------ Dutch Friends ------------------
You can find my Friends at: http://www.Film-Test.nl 
------ They got my dutchs subs ---- and more ------

General:

Complete name                    : Heksje Lilly\Reis naar Mandolan.avi
Format                           : AVI
Format/Info                      : Audio Video Interleave
File size                        : 1.47 GiB
Duration                         : 1h 27mn
Overall bit rate                 : 2 402 Kbps

Video:

Format                           : MPEG-4 Visual
Format profile                   : Simple@L3
Format settings, BVOP            : No
Format settings, QPel            : No
Format settings, GMC             : No warppoints
Format settings, Matrix          : Default (H.263)
Codec ID                         : XVID
Codec ID/Hint                    : XviD
Duration                         : 1h 27mn
Bit rate                         : 1 943 Kbps
Width                            : 720 pixels
Height                           : 304 pixels
Display aspect ratio             : 2.35:1
Frame rate                       : 25.000 fps
Color space                      : YUV
Chroma subsampling               : 4:2:0
Bit depth                        : 8 bits
Scan type                        : Progressive
Bits/(Pixel*Frame)               : 0.355
Stream size                      : 1.19 GiB (81%)
Writing library                  : XviD 1.1.2 (UTC 2006-11-01)

Audio:

Format                           : AC-3
Format/Info                      : Audio Coding 3
Mode extension                   : CM (complete main)
Codec ID                         : 2000
Duration                         : 1h 27mn
Bit rate mode                    : Constant
Bit rate                         : 448 Kbps
Channel(s)                       : 6 channels
Channel positions                : Front: L C R, Side: L R, LFE
Sampling rate                    : 48.0 KHz
Bit depth                        : 16 bits
Stream size                      : 280 MiB (19%)
Alignment                        : Aligned on interleaves
Interleave, duration             : 32 ms (0.80 video frame)
Interleave, preload duration     : 64 ms

